<svg width="15" height="14" viewBox="0 0 15 14" fill="none" xmlns="http://www.w3.org/2000/svg">
<path d="M1.15748 5.97644L1.82546 5.46415V12.1339C1.82546 12.9676 2.50348 13.6406 3.33218 13.6406H11.368C12.1967 13.6406 12.8747 12.9676 12.8747 12.1339V5.46415L13.5427 5.97644C13.6331 6.04675 13.7386 6.08191 13.8491 6.08191C13.9998 6.08191 14.1454 6.01662 14.2458 5.88604C14.4166 5.66505 14.3714 5.34864 14.1554 5.1829L8.2692 0.662742C7.72678 0.245883 6.97342 0.245883 6.431 0.662742L0.544749 5.1829C0.328786 5.34864 0.283584 5.66505 0.454346 5.88604C0.625107 6.10702 0.936496 6.1472 1.15748 5.97644ZM2.82994 4.69573L7.04373 1.45628C7.22454 1.32068 7.47566 1.32068 7.65646 1.45628L11.8703 4.69573V12.1339C11.8703 12.4152 11.6442 12.6361 11.368 12.6361H3.33218C3.05595 12.6361 2.82994 12.4152 2.82994 12.1339V4.69573Z" fill="#8EA1E0" stroke="#8EA1E0" stroke-width="0.7"/>
<path d="M7.35087 10.017C7.62811 10.017 7.85311 9.79198 7.85311 9.51474V6.69316C7.85311 6.41592 7.62811 6.19092 7.35087 6.19092C7.07364 6.19092 6.84863 6.41592 6.84863 6.69316V9.51474C6.84863 9.79198 7.07364 10.017 7.35087 10.017Z" fill="#8EA1E0" stroke="#8EA1E0" stroke-width="0.7"/>
</svg>
