<svg width="60" height="49" viewBox="0 0 60 49" fill="none" xmlns="http://www.w3.org/2000/svg">
<path d="M20.5251 39.3955C20.2317 39.3955 19.9799 39.354 19.7696 39.271C19.5648 39.188 19.4071 39.0413 19.2964 38.831C19.1857 38.6207 19.1304 38.3246 19.1304 37.9427V37.6522C19.302 37.6522 19.4708 37.6522 19.6368 37.6522C19.8028 37.6522 19.9689 37.6522 20.1349 37.6522V38.0257C20.1349 38.2305 20.1515 38.3882 20.1847 38.4989C20.2179 38.6041 20.265 38.6788 20.3258 38.7231C20.3867 38.7618 20.4587 38.7812 20.5417 38.7812C20.669 38.7812 20.7686 38.7369 20.8405 38.6484C20.918 38.5543 20.9568 38.3744 20.9568 38.1088C20.9568 37.904 20.9235 37.7518 20.8571 37.6522C20.7963 37.547 20.6966 37.464 20.5583 37.4031C20.4199 37.3367 20.2428 37.2565 20.027 37.1624C19.8333 37.0794 19.6728 36.9797 19.5455 36.8635C19.4182 36.7473 19.3241 36.6006 19.2632 36.4235C19.2023 36.2464 19.1719 36.0306 19.1719 35.776C19.1719 35.455 19.2134 35.1949 19.2964 34.9956C19.385 34.7964 19.5289 34.6525 19.7281 34.564C19.9329 34.4699 20.2068 34.4228 20.55 34.4228C20.9927 34.4228 21.3303 34.5197 21.5628 34.7134C21.8008 34.9016 21.9197 35.1866 21.9197 35.5685V36.1579C21.7592 36.1579 21.5987 36.1579 21.4382 36.1579C21.2833 36.1579 21.1228 36.1579 20.9568 36.1579V35.859C20.9568 35.61 20.9263 35.4356 20.8654 35.336C20.8101 35.2364 20.7077 35.1866 20.5583 35.1866C20.4144 35.1866 20.312 35.2309 20.2511 35.3194C20.1902 35.408 20.1598 35.5519 20.1598 35.7511C20.1598 35.9337 20.1958 36.0776 20.2677 36.1828C20.3452 36.2824 20.4421 36.3599 20.5583 36.4152C20.6745 36.465 20.799 36.5148 20.9318 36.5647C21.1754 36.6587 21.3746 36.7556 21.5296 36.8552C21.6845 36.9493 21.798 37.0821 21.8699 37.2537C21.9419 37.4197 21.9779 37.6605 21.9779 37.9759C21.9779 38.3301 21.917 38.6124 21.7952 38.8227C21.679 39.0275 21.5102 39.1741 21.2888 39.2627C21.073 39.3512 20.8184 39.3955 20.5251 39.3955ZM22.4811 39.3374V35.2281H23.2864L23.3694 35.7179C23.4248 35.5519 23.5216 35.4163 23.66 35.3111C23.8039 35.206 23.9699 35.1534 24.1581 35.1534C24.468 35.1534 24.6894 35.2198 24.8222 35.3526C24.955 35.4854 25.0297 35.6791 25.0464 35.9337H24.9467C24.9799 35.7124 25.074 35.5269 25.229 35.3775C25.384 35.2281 25.5721 35.1534 25.7935 35.1534C26.1477 35.1534 26.3857 35.2392 26.5074 35.4107C26.6347 35.5823 26.6984 35.8424 26.6984 36.1911V39.3374H25.752V36.2575C25.752 36.097 25.7271 35.9863 25.6773 35.9254C25.6275 35.859 25.5472 35.8258 25.4365 35.8258C25.3424 35.8258 25.2594 35.8507 25.1875 35.9005C25.1211 35.9503 25.0796 36.014 25.063 36.0915V39.3374H24.1166V36.2326C24.1166 36.0887 24.0917 35.9863 24.0419 35.9254C23.992 35.859 23.909 35.8258 23.7928 35.8258C23.6987 35.8258 23.6212 35.8479 23.5604 35.8922C23.505 35.931 23.4607 35.9808 23.4275 36.0416V39.3374H22.4811ZM28.0032 39.4038C27.8593 39.4038 27.7237 39.3844 27.5964 39.3457C27.4746 39.307 27.3722 39.2267 27.2892 39.105C27.2117 38.9777 27.173 38.7923 27.173 38.5487V38.0008C27.173 37.7407 27.2477 37.5304 27.3971 37.3699C27.5521 37.2039 27.7929 37.0628 28.1194 36.9465C28.291 36.8746 28.4265 36.8109 28.5262 36.7556C28.6258 36.7002 28.6977 36.6338 28.742 36.5564C28.7863 36.4733 28.8084 36.3626 28.8084 36.2243V36.0001C28.8084 35.9116 28.7946 35.8452 28.7669 35.8009C28.7392 35.7511 28.6977 35.7151 28.6424 35.693C28.5926 35.6708 28.5345 35.6598 28.4681 35.6598C28.3242 35.6598 28.2301 35.7096 28.1858 35.8092C28.1415 35.9033 28.1194 36.0638 28.1194 36.2907V36.6394H27.2643V36.1994C27.2643 35.9946 27.292 35.8147 27.3473 35.6598C27.4082 35.4993 27.5244 35.3748 27.696 35.2862C27.8676 35.1921 28.1249 35.1451 28.4681 35.1451C28.8167 35.1451 29.0851 35.1783 29.2733 35.2447C29.4615 35.3056 29.5915 35.4052 29.6635 35.5436C29.7354 35.6764 29.7714 35.859 29.7714 36.0915V39.3374H28.825V38.8808C28.7808 39.0413 28.6784 39.1686 28.5179 39.2627C28.3629 39.3568 28.1913 39.4038 28.0032 39.4038ZM28.4099 38.7812C28.5594 38.7812 28.6618 38.7258 28.7171 38.6152C28.778 38.4989 28.8084 38.3384 28.8084 38.1337V37.0794C28.7752 37.1347 28.7199 37.1845 28.6424 37.2288C28.5649 37.2675 28.4874 37.3118 28.4099 37.3616C28.3048 37.4336 28.2245 37.5083 28.1692 37.5858C28.1139 37.6577 28.0862 37.7601 28.0862 37.8929V38.3163C28.0862 38.4325 28.1 38.5266 28.1277 38.5986C28.1554 38.665 28.1941 38.712 28.2439 38.7397C28.2937 38.7674 28.3491 38.7812 28.4099 38.7812ZM30.3369 39.3374V35.2281H31.1422L31.2252 35.7179C31.275 35.5961 31.3497 35.4993 31.4493 35.4273C31.5489 35.3498 31.6541 35.2973 31.7648 35.2696C31.9474 35.1921 32.1384 35.1727 32.3376 35.2115V35.942C32.3265 35.9365 32.2823 35.931 32.2048 35.9254C32.1328 35.9144 32.0498 35.9144 31.9557 35.9254C31.8616 35.931 31.7814 35.9531 31.715 35.9918C31.5766 36.0416 31.4687 36.1274 31.3912 36.2492C31.3193 36.3709 31.2833 36.5176 31.2833 36.6892V39.3374H30.3369ZM33.8921 39.3623C33.7648 39.3623 33.6375 39.3512 33.5102 39.3291C33.3829 39.307 33.2695 39.2655 33.1698 39.2046C33.0702 39.1382 32.99 39.0468 32.9291 38.9306C32.8682 38.8089 32.8378 38.6484 32.8378 38.4491V35.7843H32.4476V35.3111L32.9208 35.2281L33.0536 34.4726H33.7842V35.2281H34.5645V35.7843H33.7842V38.2831C33.7842 38.3993 33.8063 38.5045 33.8506 38.5986C33.8948 38.6871 33.9945 38.7314 34.1494 38.7314C34.2214 38.7314 34.3044 38.7286 34.3985 38.7231C34.4926 38.712 34.5479 38.7065 34.5645 38.7065V39.2793C34.5479 39.2793 34.4704 39.2931 34.3321 39.3208C34.1992 39.3485 34.0526 39.3623 33.8921 39.3623ZM36.3939 39.3374V34.4311H37.3485V38.6733H38.461V39.3374H36.3939ZM40.0701 39.4038C39.7933 39.4038 39.5554 39.3706 39.3561 39.3042C39.1624 39.2378 39.0158 39.1077 38.9161 38.914C38.8165 38.7148 38.7667 38.4242 38.7667 38.0423V36.299C38.7667 35.8728 38.8746 35.5768 39.0905 35.4107C39.3063 35.2392 39.6328 35.1534 40.0701 35.1534C40.5073 35.1534 40.831 35.2392 41.0414 35.4107C41.2572 35.5768 41.3651 35.8728 41.3651 36.299V38.0423C41.3651 38.4242 41.3153 38.712 41.2157 38.9057C41.1216 39.0994 40.9777 39.2322 40.784 39.3042C40.5903 39.3706 40.3523 39.4038 40.0701 39.4038ZM40.0701 38.8393C40.1918 38.8393 40.2804 38.8061 40.3357 38.7397C40.3911 38.6677 40.4187 38.5404 40.4187 38.3578V36.1994C40.4187 36.0278 40.3911 35.9061 40.3357 35.8341C40.2859 35.7566 40.1974 35.7179 40.0701 35.7179C39.9483 35.7179 39.857 35.7539 39.7961 35.8258C39.7408 35.8978 39.7131 36.0223 39.7131 36.1994V38.3578C39.7131 38.5404 39.7408 38.6677 39.7961 38.7397C39.857 38.8061 39.9483 38.8393 40.0701 38.8393ZM43.1507 40.3253C43.0733 40.3253 42.9792 40.3225 42.8685 40.317C42.7578 40.3115 42.6471 40.3032 42.5364 40.2921C42.4313 40.281 42.34 40.27 42.2625 40.2589C42.1905 40.2534 42.1462 40.2478 42.1296 40.2423V39.7359C42.2016 39.747 42.3095 39.758 42.4534 39.7691C42.5973 39.7857 42.7191 39.794 42.8187 39.794C42.9072 39.794 42.9902 39.7857 43.0677 39.7691C43.1507 39.758 43.2227 39.7303 43.2836 39.6861C43.35 39.6473 43.4026 39.5865 43.4413 39.5034C43.48 39.426 43.4994 39.3208 43.4994 39.188V38.5986C43.4717 38.665 43.4302 38.7397 43.3749 38.8227C43.3251 38.9002 43.2504 38.9666 43.1507 39.0219C43.0511 39.0773 42.91 39.105 42.7274 39.105C42.5945 39.105 42.4728 39.0911 42.3621 39.0634C42.2569 39.0302 42.1656 38.9721 42.0881 38.8891C42.0162 38.8006 41.9581 38.676 41.9138 38.5155C41.8695 38.3495 41.8474 38.1337 41.8474 37.868V36.1911C41.8474 35.8424 41.9193 35.5823 42.0632 35.4107C42.2127 35.2336 42.4368 35.1451 42.7357 35.1451C42.9128 35.1451 43.0539 35.1672 43.159 35.2115C43.2697 35.2558 43.3583 35.3194 43.4247 35.4024C43.4911 35.4799 43.5437 35.5712 43.5824 35.6764L43.4579 35.693L43.599 35.2281H44.4458V38.7231C44.4458 38.9223 44.4264 39.1188 44.3877 39.3125C44.3545 39.5007 44.2936 39.6695 44.2051 39.8189C44.1165 39.9739 43.9864 40.0956 43.8149 40.1842C43.6488 40.2783 43.4275 40.3253 43.1507 40.3253ZM43.1341 38.5404C43.2282 38.5404 43.3002 38.5183 43.35 38.474C43.4053 38.4242 43.4413 38.3578 43.4579 38.2748C43.48 38.1862 43.4911 38.0949 43.4911 38.0008V35.9669C43.48 35.9393 43.4607 35.9116 43.433 35.8839C43.4053 35.8562 43.3666 35.8313 43.3168 35.8092C43.2725 35.7871 43.2089 35.776 43.1258 35.776C43.0152 35.776 42.9321 35.8092 42.8768 35.8756C42.8214 35.9365 42.7938 36.0527 42.7938 36.2243V38.1171C42.7938 38.2111 42.8048 38.2886 42.827 38.3495C42.8491 38.4049 42.8768 38.4464 42.91 38.474C42.9487 38.5017 42.9875 38.5211 43.0262 38.5321C43.065 38.5377 43.1009 38.5404 43.1341 38.5404ZM45.035 39.3374V35.2281H45.9814V39.3374H45.035ZM45.5082 34.7715C45.3865 34.7715 45.2813 34.73 45.1928 34.647C45.1042 34.5584 45.0599 34.456 45.0599 34.3398C45.0599 34.2181 45.1042 34.1157 45.1928 34.0327C45.2813 33.9496 45.3865 33.9081 45.5082 33.9081C45.63 33.9081 45.7351 33.9496 45.8237 34.0327C45.9178 34.1157 45.9648 34.2181 45.9648 34.3398C45.9648 34.456 45.9178 34.5584 45.8237 34.647C45.7351 34.73 45.63 34.7715 45.5082 34.7715ZM47.8115 39.3955C47.4684 39.3955 47.2 39.354 47.0063 39.271C46.8181 39.1824 46.6853 39.0468 46.6078 38.8642C46.5359 38.6816 46.4999 38.4519 46.4999 38.1752V37.8597H47.4463V38.391C47.4463 38.5681 47.4712 38.6954 47.521 38.7729C47.5708 38.8448 47.6649 38.8808 47.8032 38.8808C47.925 38.8808 48.0108 38.8476 48.0606 38.7812C48.1159 38.7092 48.1436 38.6041 48.1436 38.4657V38.1503C48.1436 38.0174 48.1187 37.9123 48.0689 37.8348C48.0191 37.7573 47.9416 37.6937 47.8364 37.6439C47.7313 37.5885 47.5985 37.5276 47.438 37.4612C47.2885 37.4004 47.1502 37.3312 47.0229 37.2537C46.8956 37.1762 46.7904 37.0738 46.7074 36.9465C46.6299 36.8192 46.5912 36.656 46.5912 36.4567V36.216C46.5912 35.8728 46.6853 35.6127 46.8735 35.4356C47.0616 35.253 47.402 35.1617 47.8946 35.1617C48.2211 35.1617 48.4757 35.2032 48.6583 35.2862C48.8409 35.3692 48.9682 35.4993 49.0402 35.6764C49.1177 35.8479 49.1564 36.0666 49.1564 36.3322V36.6394H48.2432V36.1745C48.2432 35.9918 48.2156 35.8645 48.1602 35.7926C48.1104 35.7151 48.0246 35.6764 47.9029 35.6764C47.7645 35.6764 47.6704 35.7124 47.6206 35.7843C47.5763 35.8562 47.5542 35.9448 47.5542 36.05V36.3571C47.5542 36.4955 47.5902 36.6062 47.6621 36.6892C47.7396 36.7667 47.8392 36.8303 47.961 36.8801C48.0827 36.9244 48.2128 36.9742 48.3511 37.0295C48.495 37.0794 48.6279 37.143 48.7496 37.2205C48.8714 37.2924 48.9682 37.3893 49.0402 37.511C49.1177 37.6328 49.1564 37.7961 49.1564 38.0008V38.2499C49.1564 38.4989 49.1149 38.7092 49.0319 38.8808C48.9544 39.0524 48.816 39.1824 48.6168 39.271C48.4231 39.354 48.1547 39.3955 47.8115 39.3955ZM50.8926 39.3623C50.7653 39.3623 50.638 39.3512 50.5107 39.3291C50.3834 39.307 50.27 39.2655 50.1704 39.2046C50.0708 39.1382 49.9905 39.0468 49.9296 38.9306C49.8687 38.8089 49.8383 38.6484 49.8383 38.4491V35.7843H49.4481V35.3111L49.9213 35.2281L50.0542 34.4726H50.7847V35.2281H51.5651V35.7843H50.7847V38.2831C50.7847 38.3993 50.8068 38.5045 50.8511 38.5986C50.8954 38.6871 50.995 38.7314 51.15 38.7314C51.2219 38.7314 51.3049 38.7286 51.399 38.7231C51.4931 38.712 51.5484 38.7065 51.5651 38.7065V39.2793C51.5484 39.2793 51.471 39.2931 51.3326 39.3208C51.1998 39.3485 51.0531 39.3623 50.8926 39.3623ZM51.9747 39.3374V35.2281H52.9211V39.3374H51.9747ZM52.4479 34.7715C52.3261 34.7715 52.221 34.73 52.1324 34.647C52.0439 34.5584 51.9996 34.456 51.9996 34.3398C51.9996 34.2181 52.0439 34.1157 52.1324 34.0327C52.221 33.9496 52.3261 33.9081 52.4479 33.9081C52.5696 33.9081 52.6748 33.9496 52.7633 34.0327C52.8574 34.1157 52.9045 34.2181 52.9045 34.3398C52.9045 34.456 52.8574 34.5584 52.7633 34.647C52.6748 34.73 52.5696 34.7715 52.4479 34.7715ZM54.7927 39.4038C54.5104 39.4038 54.2697 39.3734 54.0705 39.3125C53.8768 39.2516 53.7301 39.1271 53.6305 38.9389C53.5309 38.7452 53.481 38.4574 53.481 38.0756V36.2658C53.481 35.8452 53.589 35.5546 53.8048 35.3941C54.0207 35.2336 54.3472 35.1534 54.7844 35.1534C55.2161 35.1534 55.5399 35.2309 55.7557 35.3858C55.9715 35.5352 56.0795 35.8092 56.0795 36.2077V36.8137H55.1248V36.1579C55.1248 35.9974 55.0999 35.8839 55.0501 35.8175C55.0058 35.7456 54.9172 35.7096 54.7844 35.7096C54.6516 35.7096 54.5575 35.7456 54.5021 35.8175C54.4523 35.8839 54.4274 35.9974 54.4274 36.1579V38.3827C54.4274 38.5543 54.4523 38.676 54.5021 38.748C54.5575 38.8144 54.6543 38.8476 54.7927 38.8476C54.92 38.8476 55.0058 38.8144 55.0501 38.748C55.0999 38.6816 55.1248 38.5598 55.1248 38.3827V37.6771H56.0795V38.0756C56.0795 38.4519 56.0296 38.7369 55.93 38.9306C55.8304 39.1243 55.6837 39.2516 55.49 39.3125C55.3019 39.3734 55.0694 39.4038 54.7927 39.4038ZM57.7913 39.3955C57.4482 39.3955 57.1798 39.354 56.9861 39.271C56.7979 39.1824 56.6651 39.0468 56.5876 38.8642C56.5157 38.6816 56.4797 38.4519 56.4797 38.1752V37.8597H57.4261V38.391C57.4261 38.5681 57.451 38.6954 57.5008 38.7729C57.5506 38.8448 57.6447 38.8808 57.783 38.8808C57.9048 38.8808 57.9906 38.8476 58.0404 38.7812C58.0957 38.7092 58.1234 38.6041 58.1234 38.4657V38.1503C58.1234 38.0174 58.0985 37.9123 58.0487 37.8348C57.9989 37.7573 57.9214 37.6937 57.8163 37.6439C57.7111 37.5885 57.5783 37.5276 57.4178 37.4612C57.2683 37.4004 57.13 37.3312 57.0027 37.2537C56.8754 37.1762 56.7702 37.0738 56.6872 36.9465C56.6097 36.8192 56.571 36.656 56.571 36.4567V36.216C56.571 35.8728 56.6651 35.6127 56.8533 35.4356C57.0414 35.253 57.3818 35.1617 57.8744 35.1617C58.2009 35.1617 58.4555 35.2032 58.6381 35.2862C58.8208 35.3692 58.948 35.4993 59.02 35.6764C59.0975 35.8479 59.1362 36.0666 59.1362 36.3322V36.6394H58.223V36.1745C58.223 35.9918 58.1954 35.8645 58.14 35.7926C58.0902 35.7151 58.0044 35.6764 57.8827 35.6764C57.7443 35.6764 57.6502 35.7124 57.6004 35.7843C57.5561 35.8562 57.534 35.9448 57.534 36.05V36.3571C57.534 36.4955 57.57 36.6062 57.6419 36.6892C57.7194 36.7667 57.819 36.8303 57.9408 36.8801C58.0625 36.9244 58.1926 36.9742 58.331 37.0295C58.4749 37.0794 58.6077 37.143 58.7294 37.2205C58.8512 37.2924 58.948 37.3893 59.02 37.511C59.0975 37.6328 59.1362 37.7961 59.1362 38.0008V38.2499C59.1362 38.4989 59.0947 38.7092 59.0117 38.8808C58.9342 39.0524 58.7958 39.1824 58.5966 39.271C58.4029 39.354 58.1345 39.3955 57.7913 39.3955Z" fill="white"/>
<path d="M54.3463 32.0766V16.5644H50.5957V13.7241L51.2511 13.6877C52.1979 13.5906 52.9505 13.2993 53.5088 12.8138C54.0671 12.3283 54.5527 11.5757 54.9653 10.5562H59.4078V32.0766H54.3463Z" fill="white"/>
<path d="M23.8215 33.0805C22.632 33.0805 21.5881 32.9349 20.6899 32.6436C19.7917 32.3765 19.0877 31.806 18.5779 30.9321C18.0924 30.0339 17.8497 28.7109 17.8497 26.963V15.6748C17.8497 14.3882 18.0924 13.3928 18.5779 12.6888C19.0877 11.9849 19.7917 11.4993 20.6899 11.2323C21.6124 10.941 22.6684 10.7953 23.8579 10.7953C25.0232 10.7953 26.0549 10.941 26.9531 11.2323C27.8756 11.5236 28.5917 12.0213 29.1015 12.7253C29.6356 13.4293 29.9026 14.4124 29.9026 15.6748V26.9266C29.9026 28.6987 29.6356 30.0339 29.1015 30.9321C28.5917 31.806 27.8756 32.3765 26.9531 32.6436C26.0549 32.9349 25.011 33.0805 23.8215 33.0805ZM23.8215 30.6044C24.1857 30.6044 24.5012 30.5437 24.7683 30.4223C25.0596 30.3009 25.2781 30.0946 25.4237 29.8033C25.5937 29.4877 25.6786 29.0629 25.6786 28.5288V15.4927C25.6786 14.9586 25.5937 14.5459 25.4237 14.2546C25.2781 13.9391 25.0596 13.7206 24.7683 13.5992C24.5012 13.4778 24.1857 13.4171 23.8215 13.4171C23.4574 13.4171 23.1418 13.4778 22.8748 13.5992C22.6077 13.7206 22.3892 13.9391 22.2193 14.2546C22.0737 14.5459 22.0008 14.9586 22.0008 15.4927V28.5288C22.0008 29.0629 22.0737 29.4877 22.2193 29.8033C22.3892 30.0946 22.6077 30.3009 22.8748 30.4223C23.1418 30.5437 23.4574 30.6044 23.8215 30.6044ZM32.7198 32.6436V11.1231H37.9998L40.9493 25.0331L43.9353 11.1231H49.1788V32.6436H45.4646V16.5487L42.3695 32.6436H39.4928L36.434 16.5487V32.6436H32.7198Z" fill="url(#paint0_linear_4684_10135)"/>
<path d="M57.8691 17.3066L57.0566 20.1098H57.8691V17.3066Z" fill="#172D79"/>
<path d="M54.7816 26.7312L54.2129 27.95V32.175H57.8285V26.7312H54.7816Z" fill="#172D79"/>
<path d="M55.1473 25.5125H57.8285V20.9219H56.8535L55.1473 25.5125Z" fill="#172D79"/>
<mask id="mask0_4684_10135" style="mask-type:luminance" maskUnits="userSpaceOnUse" x="0" y="0" width="44" height="49">
<path d="M31.2354 1.40262C31.1611 1.3155 31.0612 1.22766 30.9826 1.15216C30.8798 1.07133 30.4893 0.937986 30.111 0.853529C29.7554 0.779477 29.3989 0.710266 29.0179 0.641538C28.636 0.579103 28.3416 0.580555 28.4025 0.652912C28.4632 0.725996 28.5223 0.805129 28.5564 0.886441C28.6343 0.991226 29.0419 1.13425 29.4872 1.20733C29.8849 1.27848 30.2818 1.35543 30.6553 1.43215C31.0742 1.52532 31.351 1.51636 31.2354 1.40262ZM34.3422 2.36675C34.2259 2.27164 34.1071 2.18089 34.0084 2.10394C33.886 2.01948 33.5094 1.84935 33.1894 1.73295C32.8909 1.62913 32.5912 1.52943 32.2903 1.43384C31.9417 1.32809 31.7218 1.29929 31.8236 1.37721C31.9247 1.45659 32.0239 1.5408 32.1207 1.62986C32.2131 1.73005 32.6069 1.90888 32.9748 2.01972C33.3181 2.12959 33.6376 2.23534 33.9562 2.34569C34.2963 2.46863 34.4763 2.48073 34.3422 2.36675ZM36.9852 3.58908C36.8688 3.4993 36.7293 3.40032 36.6088 3.31707C36.4654 3.22439 36.1477 3.04313 35.8892 2.9064C35.6504 2.78444 35.41 2.66586 35.1681 2.55042C34.8805 2.41781 34.7614 2.38465 34.8836 2.46742C34.9828 2.54147 35.1018 2.62956 35.2184 2.72152C35.3529 2.83114 35.7102 3.03515 35.9968 3.16583C36.2597 3.2907 36.5207 3.41968 36.7595 3.53995C37.0389 3.68757 37.1395 3.70911 36.9852 3.58884V3.58908ZM26.0907 1.2792C26.1023 1.43191 26.1357 1.59767 26.1672 1.7753C26.1955 1.98415 25.7354 2.14483 25.1565 2.12765C24.6222 2.11967 24.0881 2.11967 23.554 2.12741C22.9529 2.14604 22.5148 1.9839 22.5434 1.77506C22.575 1.59767 22.5852 1.43384 22.6198 1.2792C22.6549 1.12215 23.1142 0.98324 23.6295 0.96751C24.1212 0.960008 24.5895 0.960008 25.0813 0.96751C25.5963 0.98324 26.0559 1.12215 26.091 1.27945L26.0907 1.2792ZM29.9685 1.73174C30.0506 1.88347 30.1287 2.04416 30.2032 2.2138C30.2915 2.41442 29.9366 2.51727 29.4219 2.44031C28.9303 2.37231 28.4386 2.31205 27.947 2.2593C27.411 2.20993 26.9393 2.00423 26.8936 1.80652C26.8663 1.64002 26.8142 1.48103 26.7833 1.33462C26.7521 1.18531 27.1374 1.10497 27.6277 1.15216C28.0711 1.20128 28.514 1.25718 28.9567 1.31962C29.4223 1.39149 29.8858 1.57759 29.9685 1.73174ZM33.5348 2.60269C33.6502 2.75298 33.7615 2.90979 33.8897 3.08234C34.0082 3.27206 33.7743 3.34031 33.3275 3.21277C32.9245 3.10557 32.4997 2.99691 32.0958 2.90326C31.6255 2.79823 31.1536 2.55187 31.0672 2.36505C30.9724 2.20001 30.896 2.049 30.7937 1.89945C30.7131 1.75376 30.9937 1.7148 31.4325 1.81523C31.8241 1.91106 32.1925 2.0052 32.5822 2.11289C32.9719 2.22397 33.4182 2.45072 33.5346 2.60269H33.5348ZM36.6129 3.78631C36.7675 3.94748 36.8976 4.10042 37.0239 4.25772C37.1823 4.45108 37.0217 4.48278 36.6922 4.34315C36.3635 4.20521 36.0333 4.07332 35.7017 3.94675C35.3251 3.80882 34.9105 3.54431 34.7692 3.35555C34.6613 3.20188 34.5495 3.0533 34.4342 2.91003C34.2965 2.7554 34.4859 2.74354 34.8454 2.87833C35.1589 3.0003 35.4709 3.12735 35.7602 3.24786C36.0914 3.39379 36.4777 3.63772 36.6129 3.78655V3.78631ZM39.1552 5.18724C39.2904 5.32905 39.4416 5.48877 39.5708 5.63663C39.7317 5.82079 39.6523 5.84136 39.4036 5.69011C39.1738 5.55532 38.9232 5.40988 38.6702 5.26879C38.3937 5.12142 38.0338 4.84578 37.8925 4.67251C37.7638 4.52102 37.6122 4.35985 37.497 4.22844C37.3408 4.07114 37.453 4.07477 37.7297 4.22578C37.9629 4.35597 38.1942 4.4898 38.4235 4.62701C38.6714 4.78092 38.999 5.03163 39.155 5.187L39.1552 5.18724ZM41.11 6.67698C41.2469 6.81613 41.3811 6.95746 41.5134 7.10096C41.6762 7.28222 41.6586 7.29989 41.474 7.14065C41.3228 7.01747 41.1521 6.87978 40.9612 6.72829C40.7665 6.58188 40.4813 6.32003 40.3364 6.15451C40.2053 6.00955 40.0715 5.86726 39.9353 5.72738C39.7788 5.57323 39.8311 5.5863 40.0248 5.73391C40.1973 5.86968 40.3676 6.00786 40.5173 6.13273C40.7016 6.2922 40.953 6.52307 41.11 6.67674V6.67698ZM28.6809 3.88263C28.6304 3.60844 28.5748 3.34684 28.514 3.09782C28.4526 2.83985 27.9599 2.59495 27.4098 2.54582C26.9037 2.50783 26.3762 2.47492 25.8709 2.45145C25.3 2.43257 24.8561 2.62302 24.8503 2.87954C24.8658 3.12711 24.8597 3.38798 24.874 3.66313C24.8866 3.98233 25.4028 4.26571 26.0075 4.28337C26.5726 4.30806 27.1389 4.34049 27.7064 4.3809C28.3162 4.43172 28.761 4.20569 28.6814 3.88287L28.6809 3.88263ZM33.014 4.56313C32.9129 4.3037 32.8248 4.06122 32.7097 3.8185C32.6146 3.57698 32.1238 3.2907 31.6369 3.1864C31.1945 3.09879 30.752 3.01821 30.2886 2.9381C29.7811 2.85873 29.4301 2.99231 29.5056 3.23939C29.5597 3.47244 29.6297 3.72097 29.6942 3.98039C29.7666 4.28023 30.2796 4.59773 30.8193 4.67469C31.3186 4.75527 31.7999 4.83707 32.2825 4.92709C32.8089 5.03357 33.1381 4.8678 33.0142 4.56313H33.014ZM39.8076 6.93471C39.6663 6.70626 39.5379 6.49597 39.387 6.27405C39.2353 6.05021 38.892 5.76078 38.594 5.60662C38.3158 5.46772 38.0357 5.33389 37.7539 5.20491C37.4288 5.05946 37.275 5.12142 37.4066 5.33946C37.5382 5.55387 37.6647 5.77239 37.8038 6.0081C37.93 6.25711 38.3284 6.59325 38.6731 6.74281C38.9573 6.86284 39.2571 7.00368 39.5374 7.13557C39.8383 7.28246 39.9552 7.18808 39.8074 6.93471H39.8076ZM42.1201 8.35645C41.9883 8.15269 41.8528 7.95086 41.7142 7.75146C41.5744 7.55205 41.2858 7.26165 41.0698 7.10411C40.8884 6.98093 40.6874 6.84469 40.4844 6.71159C40.2408 6.55356 40.1663 6.60124 40.3214 6.81976C40.4583 7.02135 40.5911 7.22535 40.7203 7.43178C40.8574 7.66167 41.1724 7.97797 41.4015 8.11639C41.6235 8.26377 41.8107 8.38041 42.0115 8.51835C42.2292 8.67468 42.2614 8.58272 42.1204 8.35621L42.1201 8.35645ZM43.7643 9.78061C43.6433 9.59791 43.5197 9.41689 43.4087 9.25669C43.2657 9.05946 43.0478 8.79737 42.9111 8.65823C42.7887 8.53868 42.6487 8.40316 42.5221 8.28797C42.3598 8.14035 42.3465 8.18488 42.4888 8.38235C42.6136 8.56215 42.736 8.74365 42.8555 8.92684C43.0006 9.15069 43.2316 9.42826 43.3799 9.55701C43.5231 9.69059 43.6491 9.80723 43.7727 9.92605C43.9104 10.0654 43.9104 10.0052 43.7643 9.78086V9.78061ZM26.3699 45.0952C26.3554 45.3822 26.3172 45.6562 26.2973 45.9134C26.2555 46.1813 25.7661 46.4071 25.1708 46.425C24.6198 46.4332 24.0687 46.433 23.5397 46.4252C22.9444 46.4076 22.4333 46.1803 22.3917 45.9125C22.3723 45.6554 22.3344 45.3815 22.3201 45.0947C22.2915 44.7596 22.7848 44.4912 23.4495 44.5098C24.0535 44.5181 24.637 44.5181 25.241 44.5098C25.9059 44.4912 26.3987 44.7598 26.3694 45.095L26.3699 45.0952ZM34.9581 43.7572C34.8434 44.0113 34.7213 44.2582 34.5921 44.4982C34.4622 44.7438 33.999 45.0405 33.5343 45.1731C33.1342 45.2762 32.7128 45.3813 32.2699 45.4873C31.8038 45.5877 31.4831 45.48 31.5859 45.2336C31.6676 45.0021 31.7636 44.7542 31.8527 44.497C31.9465 44.202 32.4509 43.8678 32.9589 43.7654C33.4255 43.6619 33.8735 43.559 34.3222 43.4475C34.8142 43.3156 35.0938 43.4596 34.9576 43.7575L34.9581 43.7572ZM28.0583 47.3431C28.105 47.1979 28.1495 47.0431 28.2138 46.8746C28.2721 46.6791 27.8636 46.5579 27.3268 46.6063C26.835 46.6435 26.3433 46.6738 25.8295 46.6989C25.2935 46.7166 24.8278 46.8945 24.8092 47.0886C24.8126 47.2529 24.8155 47.4068 24.7952 47.551C24.7978 47.6977 25.1981 47.8015 25.6897 47.7848C26.1577 47.7613 26.6023 47.733 27.0467 47.6984C27.5375 47.6527 27.9879 47.4949 28.0583 47.3434V47.3431ZM31.7874 46.6743C31.8868 46.5286 31.9821 46.3759 32.0735 46.2157C32.178 46.0279 31.9056 45.9458 31.4347 46.0482C31.0082 46.1336 30.56 46.2191 30.1113 46.2972C29.6178 46.3756 29.1563 46.5939 29.1018 46.7754C29.0411 46.933 28.9775 47.082 28.911 47.2226C28.844 47.3664 29.1662 47.4201 29.6081 47.3487C30.0261 47.2734 30.4207 47.1982 30.8147 47.1171C31.254 47.0191 31.6872 46.8219 31.7871 46.674L31.7874 46.6743ZM35.117 45.6351C35.2535 45.4844 35.365 45.3394 35.4937 45.1785C35.6344 44.9936 35.4489 44.9464 35.0713 45.0807C34.7155 45.2022 34.3587 45.3181 34.0009 45.428C33.5982 45.5461 33.1536 45.8004 33.0493 45.9754C32.9366 46.1336 32.842 46.2771 32.7436 46.4148C32.6226 46.5629 32.8575 46.5809 33.2455 46.4632C33.587 46.3551 33.9056 46.251 34.2448 46.1327C34.6054 46.0015 35.0009 45.7762 35.1168 45.6351H35.117ZM37.9332 44.3283C38.0689 44.1856 38.2017 44.0394 38.3507 43.8758C38.4929 43.7047 38.3853 43.6783 38.1066 43.8213C37.8282 43.9629 37.5679 44.0863 37.2861 44.2187C36.9603 44.3678 36.5916 44.6253 36.4487 44.8017C36.3185 44.9553 36.2056 45.0933 36.0894 45.2274C35.9518 45.3738 36.0911 45.3774 36.3773 45.2482C36.6606 45.1122 36.9213 44.9844 37.1801 44.8525C37.4385 44.7187 37.796 44.4706 37.9329 44.3283H37.9332ZM40.1743 42.8751C40.3112 42.736 40.446 42.5947 40.5778 42.4507C40.7237 42.2863 40.6951 42.2554 40.4796 42.4136C40.2994 42.5383 40.0991 42.6757 39.8966 42.81C39.6717 42.954 39.3582 43.2168 39.213 43.3828C39.0817 43.5283 38.9474 43.6713 38.8105 43.8112C38.6724 43.9506 38.7534 43.9377 38.9586 43.8066C39.1608 43.6711 39.3611 43.5324 39.5403 43.4061C39.7372 43.2626 40.036 43.0126 40.1746 42.8751H40.1743ZM25.9485 48.142C25.9306 48.2327 25.912 48.315 25.8687 48.391C25.8491 48.4636 25.4662 48.5331 24.9831 48.5483C24.5724 48.5546 24.1377 48.5544 23.7269 48.5483C23.2439 48.5331 22.861 48.4634 22.8174 48.3893C22.7981 48.315 22.7797 48.2327 22.7618 48.142C22.7219 48.0307 23.1292 47.9523 23.6478 47.9685C24.1195 47.9757 24.591 47.9757 25.0627 47.9685C25.5813 47.9523 25.9887 48.0309 25.9485 48.1422V48.142ZM29.5259 47.7383C29.448 47.8308 29.3916 47.9114 29.3099 47.99C29.2508 48.0621 28.8304 48.1802 28.4001 48.248C28.0167 48.3019 27.6328 48.3506 27.2245 48.3963C26.7915 48.438 26.4739 48.4145 26.492 48.3453C26.5339 48.2729 26.5745 48.193 26.5905 48.1081C26.6285 48.0036 27.0438 47.8799 27.5382 47.832C27.9618 47.7853 28.4081 47.7284 28.8309 47.6689C29.2997 47.5953 29.5994 47.6302 29.5256 47.7378L29.5259 47.7383ZM32.8164 46.9441C32.7213 47.0344 32.6238 47.1193 32.5012 47.2071C32.4001 47.2848 32.0157 47.4363 31.6427 47.5452C31.2917 47.6423 30.963 47.7272 30.6096 47.8138C30.2315 47.9002 29.9852 47.9121 30.0665 47.838C30.1238 47.7683 30.2027 47.687 30.2796 47.5997C30.3757 47.4929 30.7995 47.3255 31.2184 47.2296C31.59 47.1391 31.9606 47.0433 32.3302 46.9417C32.7218 46.8284 32.9514 46.8255 32.8161 46.9438L32.8164 46.9441ZM35.7077 45.835C35.5701 45.9386 35.4518 46.0269 35.3309 46.1114C35.1867 46.2038 34.8391 46.3802 34.5273 46.5182C34.2583 46.6322 33.9654 46.7519 33.693 46.8579C33.3742 46.9775 33.2046 47.0109 33.3052 46.9359C33.4274 46.85 33.5251 46.7689 33.6427 46.6738C33.7559 46.5697 34.1429 46.3732 34.4823 46.2469C34.797 46.1235 35.0885 46.0056 35.3998 45.8728C35.7104 45.7365 35.8408 45.7239 35.7075 45.8348L35.7077 45.835ZM20.9592 0.791093C21.0187 0.700102 21.0557 0.62 21.1179 0.543529C21.1568 0.471655 21.5586 0.378486 21.9916 0.338072C22.4009 0.305886 22.7865 0.281686 23.1965 0.261358C23.6307 0.246839 23.9935 0.291366 23.9947 0.36203C23.9957 0.433903 23.9732 0.513279 23.9746 0.600156C23.9763 0.7047 23.5535 0.806097 23.0818 0.821585C22.6341 0.843365 22.1866 0.871679 21.7391 0.906527C21.2683 0.949844 20.9261 0.895879 20.9589 0.791335L20.9592 0.791093ZM17.4982 1.39875C17.5956 1.3051 17.6723 1.22403 17.7742 1.14175C17.8537 1.0677 18.2442 0.934599 18.6462 0.844575C19.002 0.771007 19.3586 0.702522 19.7159 0.638876C20.1217 0.572569 20.3922 0.578377 20.3312 0.650492C20.2942 0.719462 20.235 0.798595 20.1771 0.884021C20.1225 0.98445 19.6914 1.13159 19.2693 1.19934C18.8714 1.26977 18.4744 1.34624 18.078 1.42852C17.6588 1.5212 17.405 1.50523 17.4979 1.39875H17.4982ZM14.3905 2.3607C14.5069 2.26559 14.6259 2.17484 14.7469 2.08845C14.8695 2.00423 15.2239 1.84379 15.5439 1.72763C15.8424 1.62381 16.1651 1.51612 16.4662 1.42102C16.8148 1.31575 17.012 1.29469 16.9099 1.37262C16.8088 1.45199 16.7326 1.52846 16.6353 1.61728C16.5199 1.72497 16.1261 1.9038 15.7585 2.0144C15.4375 2.11507 15.1174 2.22034 14.7766 2.33988C14.4365 2.46258 14.2565 2.47444 14.3903 2.3607H14.3905ZM11.7471 3.58158C11.8843 3.47921 12.003 3.39282 12.1448 3.29747C12.2672 3.21713 12.6063 3.02426 12.8649 2.88801C13.1039 2.76629 13.3444 2.64819 13.5865 2.53324C13.8523 2.41176 13.9934 2.3682 13.871 2.45072C13.75 2.53518 13.631 2.62326 13.5142 2.71522C13.3797 2.82485 13.0437 3.01724 12.7355 3.15929C12.4936 3.2723 12.2324 3.40056 11.9728 3.53294C11.7142 3.66773 11.6134 3.68927 11.7474 3.58182L11.7471 3.58158ZM18.7647 1.72835C18.7052 1.87428 18.6266 2.03497 18.5296 2.21041C18.4413 2.41103 18.7959 2.51388 19.3327 2.43209C19.8024 2.36965 20.2942 2.30963 20.7857 2.25688C21.3218 2.20799 21.816 1.99988 21.8394 1.80483C21.8895 1.63567 21.919 1.47934 21.95 1.33293C21.9814 1.18337 21.6193 1.10037 21.129 1.14659C20.6856 1.19523 20.2425 1.25016 19.7998 1.31212C19.3112 1.38835 18.8477 1.5742 18.7647 1.72835ZM15.1977 2.59713C15.0824 2.74741 14.9708 2.90398 14.8639 3.06709C14.7241 3.26625 14.9788 3.3253 15.4256 3.19849C15.8288 3.09202 16.2323 2.99207 16.6576 2.89091C17.1281 2.78661 17.5785 2.548 17.6871 2.3544C17.7599 2.19589 17.8588 2.03884 17.9391 1.89582C18.0197 1.75013 17.7391 1.71093 17.323 1.80434C16.9312 1.89945 16.5403 2.00084 16.1728 2.10006C15.7609 2.21913 15.3364 2.43668 15.198 2.59737L15.1977 2.59713ZM12.1189 3.77905C11.9847 3.92764 11.8543 4.08058 11.7077 4.25022C11.5493 4.44334 11.7096 4.47504 12.0594 4.32355C12.3681 4.19819 12.6985 4.0663 13.0301 3.94022C13.4068 3.80228 13.8219 3.53826 13.9631 3.3495C14.071 3.19583 14.2043 3.03708 14.3199 2.89406C14.4363 2.74959 14.2469 2.73773 13.9087 2.86163C13.595 2.98312 13.2827 3.10968 12.9721 3.24109C12.6409 3.38677 12.2749 3.61836 12.1192 3.77929L12.1189 3.77905ZM9.59499 5.16377C9.44066 5.32034 9.3081 5.46481 9.16006 5.62768C8.99896 5.81184 9.07854 5.83241 9.32697 5.6814C9.57563 5.53185 9.80761 5.40141 10.0606 5.26032C10.3374 5.11295 10.6973 4.83779 10.8584 4.65097C10.9871 4.49972 11.1192 4.35186 11.2546 4.20763C11.3908 4.0634 11.2786 4.06727 11.0219 4.20473C10.7687 4.34823 10.5372 4.48181 10.3078 4.61903C10.0597 4.7727 9.75125 5.00864 9.59523 5.16377H9.59499ZM7.6204 6.66706C7.48349 6.80597 7.349 6.94729 7.21668 7.0908C7.07082 7.25463 7.08848 7.2723 7.25611 7.13049C7.42495 6.99037 7.59597 6.85316 7.76893 6.71861C7.96365 6.5722 8.24933 6.3106 8.39422 6.14531C8.54395 5.98462 8.67797 5.84233 8.81439 5.7027C8.95227 5.56427 8.91889 5.56185 8.72489 5.70923C8.55218 5.84475 8.38164 5.98269 8.21353 6.12329C8.0471 6.26631 7.77739 6.51339 7.62064 6.66682L7.6204 6.66706ZM20.0509 3.87996C20.1017 3.60578 20.1576 3.34442 20.2183 3.09516C20.2797 2.83719 20.7727 2.59253 21.345 2.54074C21.8511 2.50372 22.3566 2.47347 22.8622 2.45024C23.4333 2.4316 23.8984 2.62181 23.8825 2.87881C23.8878 3.12614 23.8728 3.38725 23.8583 3.66241C23.866 3.98112 23.3491 4.26353 22.7243 4.28192C22.1592 4.30636 21.593 4.33831 21.0455 4.37509C20.4357 4.42519 19.9914 4.19843 20.0509 3.87996ZM15.7173 4.55804C15.8184 4.29886 15.9271 4.04767 16.0221 3.81366C16.1382 3.56391 16.6085 3.28634 17.0952 3.18228C17.5378 3.09492 18.0015 3.00828 18.4437 2.93472C18.9515 2.85558 19.3235 2.98433 19.2475 3.23116C19.1721 3.46929 19.1227 3.7125 19.0579 3.97192C18.9851 4.27176 18.4715 4.58829 17.912 4.67106C17.4321 4.74438 16.9314 4.83295 16.4488 4.92249C15.9416 5.02026 15.6128 4.85401 15.7171 4.55804H15.7173ZM11.9772 5.60904C12.0933 5.37406 12.2348 5.13206 12.3637 4.90725C12.4926 4.67783 12.9278 4.3734 13.304 4.24441C13.6782 4.11688 14.033 4.00604 14.4087 3.89134C14.8291 3.76961 15.0913 3.85383 14.9767 4.08857C14.862 4.31653 14.7539 4.55151 14.6523 4.79302C14.5463 5.06721 14.0662 5.40843 13.6341 5.52192C13.2258 5.64171 12.8369 5.75836 12.4481 5.88299C12.0362 6.01947 11.8204 5.89799 11.9776 5.60904H11.9772ZM8.92252 6.92551C9.06379 6.69707 9.21037 6.47177 9.34366 6.2651C9.49533 6.04125 9.85744 5.73779 10.1557 5.58388C10.4153 5.45949 10.6954 5.32566 10.9963 5.18361C11.3025 5.05172 11.4564 5.11367 11.3245 5.33195C11.1927 5.54637 11.0662 5.76465 10.9452 5.98704C10.8003 6.24937 10.4019 6.58526 10.0749 6.7203C9.77278 6.85461 9.47283 6.99521 9.19247 7.12686C8.89156 7.27375 8.77472 7.17913 8.92252 6.92576V6.92551ZM6.60928 8.34605C6.74136 8.14228 6.87658 7.94094 7.01567 7.74129C7.17241 7.5247 7.46148 7.23503 7.66031 7.09443C7.85915 6.95504 8.06041 6.81879 8.2636 6.68618C8.48953 6.54437 8.56403 6.59204 8.42639 6.79459C8.28924 6.99594 8.15596 7.1997 8.02654 7.40588C7.87221 7.65199 7.55703 7.96829 7.32795 8.10647C7.1221 8.23642 6.91867 8.37025 6.71789 8.50819C6.51591 8.64637 6.46802 8.57232 6.60928 8.3458V8.34605ZM4.96416 9.76924C5.08535 9.58677 5.20896 9.40576 5.33522 9.22644C5.46319 9.04833 5.68113 8.78648 5.81805 8.64709C5.95617 8.50939 6.08074 8.39227 6.22322 8.25893C6.36957 8.12946 6.38287 8.17399 6.2566 8.35331C6.13154 8.53287 6.0089 8.71413 5.87368 8.91571C5.74354 9.12093 5.49729 9.41689 5.34877 9.54563C5.22032 9.65986 5.07954 9.79562 4.95569 9.91444C4.83233 10.034 4.83233 9.97397 4.96416 9.76924ZM17.3494 6.04246C17.265 6.41683 17.1926 6.80185 17.115 7.2043C17.0149 7.67184 17.4682 7.99612 18.1225 7.91747C18.7154 7.85624 19.3184 7.79986 19.9157 7.75291C20.5927 7.70451 21.1733 7.27544 21.2134 6.80766C21.2514 6.39893 21.2785 6.0081 21.3305 5.62913C21.3648 5.23394 20.8828 4.95976 20.2681 5.00889C19.7105 5.06116 19.1508 5.1219 18.5886 5.1916C18.0018 5.26831 17.435 5.65091 17.3494 6.04222V6.04246ZM13.0117 6.95117C12.8935 7.29722 12.7694 7.66022 12.6574 8.0283C12.5243 8.45616 12.8548 8.70517 13.37 8.59482C13.8562 8.49342 14.3555 8.39348 14.8514 8.30587C15.4164 8.20859 15.9764 7.75968 16.0584 7.33328C16.1511 6.95141 16.2384 6.58575 16.3192 6.23703C16.4183 5.86411 16.0599 5.65188 15.5219 5.76029C15.0432 5.86314 14.5814 5.96575 14.1368 6.06787C13.6305 6.20025 13.1298 6.59325 13.0115 6.95141L13.0117 6.95117ZM9.40437 8.17011C9.27423 8.48157 9.13635 8.81093 9.00742 9.14319C8.86785 9.51901 9.05725 9.73004 9.45396 9.58653C9.81148 9.47158 10.1855 9.35203 10.5759 9.22861C11.0096 9.10229 11.4716 8.67395 11.6005 8.28022C11.7215 7.93199 11.8364 7.59996 11.9438 7.28464C12.0848 6.93423 11.841 6.77523 11.4298 6.90954C11.0616 7.03659 10.6946 7.17211 10.3466 7.30206C9.97573 7.44557 9.55072 7.83688 9.40462 8.16987L9.40437 8.17011ZM6.62622 9.54563C6.49414 9.82587 6.36763 10.1078 6.23241 10.4098C6.09598 10.7365 6.18403 10.9153 6.45133 10.7774C6.71306 10.6392 6.96487 10.5252 7.2341 10.4004C7.54541 10.2576 7.91648 9.85273 8.05509 9.50401C8.18063 9.19788 8.29746 8.9099 8.43655 8.60813C8.57516 8.30152 8.44575 8.16939 8.14435 8.3187C7.88479 8.4489 7.62814 8.5849 7.37439 8.72647C7.1175 8.86828 6.77329 9.24531 6.62622 9.54588V9.54563ZM4.62865 10.9507C4.51254 11.189 4.38724 11.4485 4.26557 11.7093C4.13881 11.9939 4.15962 12.1452 4.33717 12.0051C4.50021 11.885 4.66687 11.7689 4.83692 11.6563C5.03068 11.5332 5.31224 11.1636 5.44529 10.8594C5.56091 10.5983 5.69516 10.3198 5.81998 10.0618C5.95931 9.78376 5.90368 9.67922 5.7029 9.822C5.52487 9.95389 5.36401 10.0705 5.19202 10.2094C5.01883 10.3491 4.77258 10.6724 4.62841 10.9504L4.62865 10.9507ZM3.29678 12.3039C3.18793 12.5212 3.08174 12.74 2.97845 12.9597C2.8679 13.2027 2.84758 13.3288 2.94603 13.2163C3.04448 13.1045 3.13471 13.0159 3.23897 12.9082C3.36161 12.7836 3.55343 12.4787 3.67317 12.2154C3.78662 11.9753 3.90321 11.7367 4.01013 11.5196C4.13107 11.2825 4.14148 11.174 4.00795 11.3178C3.90587 11.425 3.80645 11.5341 3.70921 11.645C3.60036 11.7776 3.41966 12.066 3.29678 12.3037V12.3039ZM9.64893 12.3966C9.74859 11.9581 9.84728 11.5332 9.95807 11.108C10.0664 10.669 10.5277 10.2058 10.9813 10.0819C11.3925 9.98268 11.8325 9.86943 12.2713 9.76851C12.751 9.6722 13.0892 9.95292 12.9805 10.4284C12.8983 10.8607 12.817 11.3042 12.7249 11.7703C12.6441 12.279 12.1441 12.7797 11.6225 12.8763C11.1671 12.9585 10.7222 13.0428 10.2895 13.1282C9.82479 13.2257 9.53064 12.9053 9.64893 12.3969V12.3966ZM6.30159 13.369C6.40754 12.9852 6.50938 12.6193 6.61823 12.2534C6.75031 11.8461 7.10009 11.4327 7.42205 11.2999C7.72248 11.183 8.02606 11.0741 8.34584 10.9575C8.70917 10.8299 8.91478 11.0618 8.78924 11.4874C8.68716 11.8717 8.58193 12.2715 8.48614 12.6703C8.3785 13.1255 7.99268 13.5735 7.61943 13.684C7.29118 13.7845 6.97841 13.8769 6.68088 13.9611C6.34997 14.0792 6.18089 13.8128 6.30159 13.3692V13.369ZM3.91942 14.4168C4.02029 14.0855 4.12599 13.7547 4.22614 13.4447C4.3483 13.0926 4.61172 12.7144 4.81709 12.597C5.01762 12.4791 5.20992 12.3852 5.43053 12.258C5.66565 12.143 5.76531 12.3407 5.65525 12.6902C5.54422 13.0355 5.43924 13.3813 5.34006 13.7271C5.23339 14.1155 4.95206 14.5083 4.7034 14.6278C4.49343 14.721 4.29798 14.7992 4.09818 14.902C3.89184 15.0044 3.81927 14.7716 3.91966 14.4166L3.91942 14.4168ZM2.36839 15.4296C2.45378 15.1564 2.54255 14.8839 2.63471 14.6119C2.73776 14.3181 2.92547 13.9849 3.04545 13.8847C3.16374 13.7845 3.28541 13.6865 3.42111 13.5706C3.55609 13.4815 3.59383 13.6335 3.48546 13.9454C3.38797 14.2353 3.2946 14.5262 3.20486 14.8176C3.11318 15.1322 2.9158 15.477 2.7738 15.5695C2.64415 15.6682 2.52707 15.7476 2.41387 15.8296C2.298 15.9114 2.2801 15.7265 2.36863 15.4296H2.36839ZM1.46249 16.3702C1.53603 16.1389 1.61198 15.908 1.69036 15.6781C1.77938 15.426 1.89863 15.1598 1.96733 15.0569C2.02756 14.9768 2.08997 14.8982 2.1548 14.8207C2.23486 14.7237 2.22785 14.8522 2.13109 15.1252C2.05417 15.3538 1.97096 15.6058 1.89887 15.8357C1.81421 16.1118 1.67754 16.4203 1.60449 16.4968C1.54595 16.5532 1.48233 16.6333 1.42887 16.6921C1.36791 16.7739 1.38412 16.6258 1.46225 16.3705L1.46249 16.3702ZM7.20338 15.976C7.13153 16.4479 7.05268 16.9508 6.98253 17.4503C6.91238 18.0025 7.18741 18.4129 7.60444 18.3505C7.99897 18.2886 8.40172 18.2377 8.81875 18.1833C9.29117 18.1259 9.73529 17.5945 9.80302 16.996C9.86301 16.4707 9.92662 15.953 10.0021 15.4289C10.0829 14.8727 9.76673 14.4926 9.30036 14.5886C8.89228 14.6719 8.498 14.753 8.1083 14.8471C7.69999 14.9408 7.29747 15.4431 7.20289 15.9763L7.20338 15.976ZM4.31008 16.7993C4.2288 17.2255 4.15381 17.6511 4.08511 18.0761C4.01593 18.5424 4.17244 18.8921 4.44771 18.8171C4.70485 18.7617 4.97045 18.7113 5.25032 18.6477C5.56986 18.5792 5.89352 18.1075 5.95931 17.6119C6.02801 17.1541 6.10421 16.6943 6.17992 16.2507C6.26168 15.7822 6.07179 15.4666 5.75491 15.5641C5.48254 15.6423 5.2167 15.7275 4.95739 15.8199C4.68767 15.9116 4.39909 16.3497 4.31008 16.7993ZM2.37008 17.6385C2.29703 18.0008 2.23486 18.3411 2.171 18.7036C2.10376 19.1116 2.18019 19.3867 2.34009 19.3301C2.49369 19.2733 2.65407 19.219 2.82049 19.1675C3.01449 19.1014 3.22953 18.7036 3.2992 18.268C3.3604 17.8965 3.43321 17.5038 3.50408 17.1318C3.58246 16.7369 3.49271 16.4661 3.29581 16.5595C3.12576 16.641 2.96151 16.7265 2.81009 16.7935C2.64608 16.8818 2.45184 17.2535 2.37032 17.6385H2.37008ZM1.19641 18.4294C1.14005 18.7111 1.08127 19.0165 1.03095 19.2991C0.975318 19.629 0.997815 19.8524 1.0774 19.8194C1.1594 19.7631 1.24551 19.7081 1.33139 19.6776C1.43443 19.6268 1.57304 19.274 1.63061 18.9274C1.6831 18.6271 1.74454 18.3043 1.80985 17.9819C1.87686 17.6594 1.85122 17.4302 1.73995 17.5195C1.64658 17.5902 1.56385 17.64 1.47822 17.7143C1.39089 17.7883 1.2668 18.1015 1.19641 18.4294ZM0.604978 19.1314C0.557083 19.37 0.511365 19.6091 0.468066 19.8485C0.423073 20.1123 0.409527 20.3073 0.441457 20.2635C0.474113 20.2197 0.50943 20.1769 0.547649 20.1343C0.591916 20.0931 0.666177 19.8366 0.714556 19.5511C0.761968 19.2895 0.811798 19.0286 0.864531 18.768C0.924763 18.4841 0.932503 18.3113 0.884124 18.374C0.841309 18.4381 0.807202 18.4795 0.769708 18.5453C0.733182 18.6116 0.660614 18.8694 0.60522 19.1314H0.604978ZM4.95739 22.6029C4.97891 22.1148 5.00335 21.6451 5.03261 21.1741C5.07301 20.643 5.36885 20.1851 5.69903 20.1406C6.01156 20.0956 6.33352 20.0566 6.66927 20.006C7.04663 19.9707 7.33327 20.3867 7.2953 20.9501C7.26724 21.4575 7.24426 21.9623 7.22394 22.4819C7.20749 23.0516 6.87658 23.5174 6.49487 23.5344C6.16033 23.5365 5.83643 23.5402 5.52366 23.5448C5.19154 23.5682 4.94021 23.129 4.95714 22.6027L4.95739 22.6029ZM2.57085 22.7348C2.58996 22.3415 2.6127 21.9478 2.6427 21.5323C2.6785 21.0945 2.8708 20.7044 3.0723 20.6732C3.26437 20.6415 3.46756 20.5912 3.67486 20.5648C3.91845 20.5038 4.08584 20.8709 4.05246 21.3239C4.02367 21.7552 3.99948 22.1859 3.97965 22.616C3.96175 23.107 3.74791 23.507 3.50771 23.5177C3.2992 23.509 3.09818 23.522 2.90515 23.5356C2.7022 23.5491 2.5532 23.1936 2.57085 22.7348ZM1.09578 22.8802C1.11247 22.554 1.13279 22.2278 1.15626 21.9018C1.1877 21.5294 1.30091 21.2148 1.4117 21.1833C1.51813 21.1516 1.63327 21.0982 1.75011 21.0689C1.88412 21.0425 1.97096 21.3298 1.93999 21.7131C1.91411 22.0737 1.89403 22.412 1.87565 22.7723C1.8592 23.1779 1.73414 23.5116 1.60037 23.5063C1.48354 23.5247 1.37299 23.5206 1.26704 23.5397C1.15722 23.5358 1.08054 23.2529 1.09602 22.88L1.09578 22.8802ZM0.304787 23.0223C0.318817 22.7575 0.335266 22.4928 0.356552 22.2043C0.380258 21.9159 0.440732 21.6557 0.492739 21.6134C0.541118 21.5947 0.592641 21.5768 0.64997 21.5355C0.713589 21.5192 0.74818 21.7387 0.720362 22.0703C0.699801 22.3546 0.682142 22.6392 0.667145 22.924C0.652631 23.2563 0.588771 23.5152 0.524185 23.5368C0.469759 23.5348 0.418719 23.5329 0.370099 23.5552C0.321236 23.5535 0.292209 23.3115 0.304545 23.0223H0.304787ZM0.018384 23.1527C0.0302368 22.9335 0.0440248 22.7145 0.0597479 22.4957C0.0795833 22.2527 0.103531 22.0345 0.113449 22.011C0.124818 21.9875 0.138364 21.9645 0.154087 21.9415C0.17368 21.919 0.172471 22.1143 0.150942 22.3808C0.135461 22.599 0.11998 22.8415 0.106917 23.084C0.096274 23.3267 0.0713589 23.5448 0.052733 23.544C0.0374936 23.5678 0.025157 23.5675 0.0149975 23.567C0.00556357 23.591 0.00749873 23.3959 0.018384 23.1525V23.1527ZM6.5626 26.3268C6.58485 26.8662 6.61315 27.4078 6.6446 27.9339C6.68669 28.5181 7.05848 29.0384 7.47793 29.089C7.86907 29.1224 8.27956 29.1792 8.6949 29.2092C9.17264 29.2625 9.53596 28.7884 9.50065 28.1749C9.47017 27.6009 9.44622 27.0327 9.42566 26.4543C9.40921 25.8196 8.99654 25.2872 8.51759 25.2833C8.09524 25.2746 7.68571 25.2634 7.28949 25.2673C6.86787 25.254 6.5447 25.7353 6.5626 26.3265V26.3268ZM3.64124 26.185C3.66349 26.6431 3.69131 27.1014 3.72106 27.5399C3.76267 28.0416 4.01375 28.482 4.28637 28.5316C4.54592 28.5815 4.81031 28.6071 5.09285 28.6674C5.4119 28.716 5.64267 28.31 5.60203 27.7732C5.57204 27.2955 5.54495 26.8006 5.52487 26.3256C5.50576 25.7762 5.22347 25.3167 4.90441 25.3126C4.62526 25.306 4.35652 25.2985 4.09818 25.2901C3.8258 25.2816 3.62285 25.6857 3.64124 26.185ZM1.73777 26.0315C1.75833 26.417 1.78107 26.7798 1.8101 27.1653C1.84517 27.5736 2.00168 27.9402 2.16084 27.9833C2.31372 28.0263 2.47337 28.0675 2.63979 28.1067C2.82992 28.1406 2.96272 27.8313 2.92426 27.3771C2.89451 26.9664 2.86935 26.556 2.85024 26.1673C2.83186 25.714 2.65745 25.3331 2.46636 25.3193C2.30042 25.3043 2.14173 25.2886 1.99128 25.2949C1.83283 25.2787 1.71963 25.601 1.73753 26.0318L1.73777 26.0315ZM0.631103 25.8735C0.647793 26.1823 0.670048 26.5148 0.693511 26.8234C0.722297 27.1556 0.811314 27.4559 0.892833 27.493C0.971932 27.5302 1.05563 27.5663 1.14344 27.6019C1.24479 27.635 1.30381 27.3683 1.27164 26.9974C1.24503 26.6496 1.22447 26.3251 1.20681 26.0003C1.19036 25.6293 1.09336 25.3077 0.992493 25.2884C0.906621 25.2918 0.824376 25.2714 0.747938 25.2743C0.667629 25.2535 0.616347 25.541 0.630861 25.8738L0.631103 25.8735ZM0.109094 25.7358C0.124092 26.0027 0.140057 26.2452 0.160134 26.5119C0.182872 26.7784 0.228106 27.0424 0.257134 27.0634C0.286645 27.0845 0.319059 27.1053 0.354375 27.1256C0.398884 27.1689 0.413398 26.9492 0.388966 26.661C0.366954 26.3728 0.349779 26.1083 0.335024 25.8438C0.32051 25.5311 0.275518 25.2918 0.233428 25.2692C0.199079 25.2705 0.166665 25.2475 0.13788 25.2484C0.109578 25.2494 0.0967578 25.4687 0.109094 25.7356V25.7358ZM5.64122 32.4714C5.56527 32.0399 5.48834 31.5912 5.41844 31.1442C5.35022 30.6583 5.55535 30.2999 5.88336 30.3597C6.19492 30.4199 6.51446 30.4727 6.84223 30.518C7.22563 30.5961 7.59404 31.0772 7.6591 31.5997C7.72321 32.0711 7.79577 32.5461 7.86883 33.0081C7.95591 33.5134 7.71547 33.8445 7.33956 33.7452C7.0101 33.6569 6.69564 33.5766 6.38674 33.4873C6.06405 33.3992 5.73193 32.9457 5.64122 32.4711V32.4714ZM3.24163 31.6128C3.16737 31.2379 3.09794 30.863 3.03336 30.4884C2.96611 30.0703 3.07811 29.7903 3.28178 29.851C3.47675 29.912 3.67317 29.9488 3.88773 30.0231C4.12309 30.0674 4.38143 30.494 4.44747 30.9342C4.51254 31.3337 4.58269 31.734 4.65865 32.1347C4.74162 32.559 4.60688 32.8247 4.36813 32.738C4.15938 32.6596 3.95618 32.5764 3.75904 32.4885C3.5544 32.4014 3.32387 32.0104 3.24163 31.6128ZM1.71261 30.7929C1.6519 30.4923 1.58852 30.1685 1.53482 29.8672C1.47556 29.5195 1.51668 29.2709 1.63327 29.3411C1.74116 29.3888 1.85364 29.4348 1.9712 29.4791C2.10956 29.5413 2.27115 29.8779 2.33622 30.2612C2.39693 30.5993 2.45523 30.9156 2.52369 31.2536C2.60037 31.6142 2.54183 31.8281 2.40322 31.7529C2.27865 31.672 2.16544 31.6111 2.05659 31.5479C1.93733 31.4627 1.78808 31.1392 1.71261 30.7929ZM0.853646 30.0557C0.800187 29.7951 0.749147 29.5337 0.70101 29.2721C0.651422 28.9863 0.653599 28.7894 0.709477 28.8525C0.760032 28.8917 0.813733 28.9304 0.870578 28.9682C0.940486 29.0275 1.03603 29.3002 1.08901 29.6061C1.14102 29.8878 1.19036 30.1462 1.24818 30.4272C1.31397 30.7314 1.30454 30.9081 1.23003 30.8292C1.16956 30.7711 1.11199 30.7118 1.05756 30.6518C1.00241 30.5915 0.909039 30.3159 0.853646 30.0555V30.0557ZM7.87052 35.9794C7.97792 36.4007 8.0829 36.806 8.1978 37.2114C8.32359 37.6426 8.74739 38.1015 9.14966 38.2409C9.51298 38.3512 9.89227 38.4654 10.287 38.5833C10.7254 38.7026 11.0021 38.4403 10.8831 37.9819C10.7759 37.5526 10.6816 37.1235 10.587 36.6817C10.4869 36.1851 10.0137 35.6771 9.56257 35.5835C9.15812 35.4884 8.76747 35.3954 8.38043 35.2897C7.97671 35.1849 7.75223 35.5005 7.87028 35.9794H7.87052ZM5.01641 34.9475C5.1255 35.3165 5.24113 35.6851 5.35192 36.0341C5.47383 36.4058 5.80232 36.8324 6.06309 36.9515C6.31732 37.0713 6.57566 37.1843 6.85069 37.308C7.15524 37.4321 7.31973 37.2269 7.1908 36.8198C7.08509 36.4542 6.97503 36.0711 6.87271 35.688C6.75587 35.2461 6.40609 34.8035 6.09211 34.6946C5.81151 34.5855 5.54688 34.4872 5.29797 34.4011C5.01979 34.2774 4.90054 34.5354 5.01617 34.9475H5.01641ZM3.07496 33.9103C3.17366 34.2244 3.27646 34.538 3.3737 34.8296C3.49271 35.1638 3.71985 35.5218 3.88918 35.643C4.05536 35.7642 4.21429 35.8613 4.38869 35.9745C4.58753 36.0984 4.65816 35.9237 4.53673 35.5728C4.42667 35.2439 4.33257 34.9342 4.23267 34.6041C4.12333 34.2305 3.86668 33.8283 3.66833 33.7196C3.50505 33.6429 3.33742 33.5417 3.18382 33.4578C3.01667 33.353 2.96611 33.5509 3.0752 33.9103H3.07496ZM1.86525 32.9232C1.94532 33.1761 2.03724 33.4507 2.12335 33.7022C2.22059 33.9756 2.38411 34.2989 2.47361 34.3904C2.56287 34.4816 2.66519 34.5927 2.76074 34.6801C2.87443 34.7846 2.88991 34.645 2.78614 34.3519C2.6935 34.0809 2.5948 33.7871 2.50917 33.5146C2.41169 33.1964 2.24768 32.8794 2.13907 32.7937C2.04038 32.7037 1.94532 32.6117 1.86186 32.5401C1.76922 32.4462 1.7726 32.6236 1.86501 32.9229L1.86525 32.9232ZM1.22374 32.02C1.29075 32.2289 1.36791 32.46 1.43951 32.6676C1.52127 32.8973 1.62819 33.1695 1.67101 33.2576C1.70681 33.322 1.75398 33.4081 1.80332 33.4931C1.85678 33.5763 1.8338 33.4546 1.74406 33.2027C1.6652 32.973 1.58852 32.7424 1.5145 32.5113C1.43589 32.2562 1.32873 31.9852 1.2743 31.9007C1.23221 31.8378 1.19254 31.7739 1.15553 31.7091C1.11247 31.6205 1.14416 31.7638 1.22374 32.0198V32.02ZM15.1085 42.3737C15.0158 42.0301 14.9169 41.6697 14.8134 41.2929C14.704 40.8653 15.0814 40.5904 15.6453 40.6838C16.1801 40.7707 16.7103 40.8462 17.2517 40.9191C17.8596 40.9946 18.4108 41.4161 18.4747 41.8481C18.5262 42.2239 18.6058 42.5947 18.6585 42.9431C18.7301 43.3146 18.3257 43.5476 17.7587 43.4668C17.2495 43.3874 16.7575 43.3069 16.2633 43.2178C15.7439 43.121 15.2193 42.7413 15.1085 42.3739V42.3737ZM11.1279 41.2951C11.0004 40.9742 10.8821 40.6495 10.7573 40.3083C10.6235 39.922 10.8703 39.7045 11.304 39.8238C11.7108 39.9322 12.1332 40.0425 12.5705 40.1541C13.0488 40.263 13.54 40.6858 13.6559 41.0851C13.7469 41.4265 13.8485 41.7627 13.9605 42.0935C14.072 42.4369 13.779 42.6106 13.331 42.4957C12.9251 42.3836 12.5192 42.2629 12.1315 42.1455C11.7021 42.0042 11.2546 41.6252 11.1281 41.2951H11.1279ZM7.94236 39.984C7.79965 39.6844 7.67846 39.3988 7.5488 39.0951C7.40512 38.7483 7.54275 38.5741 7.85722 38.7091C8.14991 38.8287 8.46002 38.9569 8.77279 39.077C9.12837 39.2091 9.53403 39.6149 9.65086 39.9557C9.7706 40.2686 9.89832 40.5788 10.0178 40.8716C10.1526 41.1862 9.97791 41.3237 9.6482 41.1944C9.34414 41.0647 9.04226 40.9282 8.75924 40.8007C8.45542 40.6579 8.08556 40.2879 7.94285 39.984H7.94236ZM5.56623 38.5782C5.43924 38.3207 5.31636 38.0618 5.18452 37.782C5.06188 37.4977 5.11534 37.3491 5.327 37.4851C5.52197 37.6022 5.72032 37.715 5.93561 37.8418C6.16275 37.957 6.48326 38.3403 6.61073 38.6455C6.73579 38.926 6.85166 39.1871 6.98736 39.4642C7.12282 39.7439 7.0355 39.8528 6.80304 39.7166C6.59453 39.5883 6.38892 39.4554 6.20096 39.3369C5.98108 39.1817 5.70823 38.8558 5.56648 38.5782H5.56623ZM3.91917 37.1949C3.79847 36.9578 3.693 36.7397 3.57859 36.5002C3.4574 36.2369 3.46441 36.1226 3.59262 36.2427C3.708 36.3417 3.83814 36.459 3.97142 36.5735C4.11293 36.6821 4.34273 37.0134 4.46029 37.2758C4.57181 37.5149 4.68671 37.7527 4.80499 37.9889C4.93779 38.2455 4.90635 38.3265 4.75613 38.1983C4.62599 38.0843 4.49827 37.9679 4.37321 37.8488C4.24791 37.7295 4.04133 37.4319 3.91917 37.1949ZM2.86814 35.8705C2.76921 35.6747 2.67221 35.478 2.57787 35.28C2.47531 35.0591 2.44797 34.964 2.51619 35.0661C2.58561 35.1675 2.64633 35.2456 2.72035 35.3444C2.79872 35.4404 2.95402 35.7149 3.06674 35.9569C3.16035 36.1543 3.26799 36.3721 3.3662 36.5677C3.47796 36.7835 3.49344 36.8593 3.40442 36.7424C3.33137 36.6441 3.2605 36.5444 3.1918 36.4433C3.12479 36.3414 2.98062 36.0868 2.86814 35.8705ZM17.8438 44.6521C17.936 44.9278 18.0146 45.1857 18.1 45.4331C18.1861 45.6881 18.6885 45.9563 19.2197 46.0351C19.7279 46.1046 20.2142 46.162 20.7216 46.2159C21.2729 46.2658 21.6936 46.1034 21.6592 45.8498C21.6254 45.6051 21.5738 45.3445 21.5465 45.0734C21.5064 44.7576 20.9744 44.451 20.3624 44.3992C19.8102 44.3445 19.2758 44.2865 18.7398 44.2199C18.1402 44.1345 17.7468 44.3349 17.8433 44.6524L17.8438 44.6521ZM13.7926 43.7742C13.9075 44.028 14.0301 44.2748 14.1397 44.5045C14.2698 44.7501 14.7539 45.056 15.1977 45.1787C15.6189 45.2903 16.0405 45.3946 16.4621 45.4921C16.9495 45.5998 17.249 45.4846 17.1668 45.2453C17.064 45.0067 16.9882 44.7661 16.8987 44.5091C16.8044 44.2143 16.2802 43.8726 15.772 43.7705C15.3054 43.6672 14.8572 43.5646 14.4084 43.4533C13.9353 43.332 13.6559 43.4767 13.7926 43.7744V43.7742ZM10.3889 42.5743C10.5256 42.8125 10.6683 43.0462 10.7982 43.2621C10.9472 43.4946 11.3562 43.8068 11.7053 43.9554C12.0333 44.09 12.3826 44.2308 12.7137 44.3533C13.0892 44.4871 13.3102 44.42 13.1789 44.1872C13.0478 43.9598 12.9232 43.7265 12.8052 43.4876C12.6641 43.2069 12.2249 42.8669 11.8136 42.7244C11.4641 42.6029 11.1158 42.4741 10.7689 42.3381C10.4003 42.1883 10.2292 42.2951 10.3886 42.5743H10.3889ZM7.70676 41.1865C7.85141 41.411 8.00066 41.6327 8.13685 41.8353C8.29142 42.0548 8.62668 42.3606 8.89398 42.5257C9.12474 42.6585 9.37583 42.802 9.62909 42.9409C9.9063 43.0857 10.0316 43.039 9.87921 42.8146C9.74545 42.6068 9.61652 42.3957 9.47452 42.1666C9.32624 41.912 8.95106 41.5695 8.65305 41.4164C8.39688 41.2828 8.14314 41.1439 7.89205 40.9996C7.63879 40.8552 7.55436 40.9382 7.70676 41.1867V41.1865ZM5.73604 39.7504C5.87054 39.953 6.00818 40.1531 6.1492 40.3516C6.29192 40.549 6.55389 40.8348 6.72249 40.9762C6.89157 41.116 7.06308 41.2528 7.23676 41.3866C7.43221 41.532 7.47647 41.4873 7.33618 41.2879C7.19684 41.0889 7.0609 40.8876 6.92858 40.6838C6.78708 40.4576 6.49729 40.1415 6.29917 39.998C6.12332 39.8654 5.95012 39.7296 5.79482 39.6089C5.60881 39.4504 5.59212 39.5256 5.73629 39.7504H5.73604ZM4.38434 38.341C4.50698 38.523 4.61752 38.6837 4.74476 38.8625C4.87417 39.0397 5.08172 39.311 5.18888 39.4436C5.29846 39.5745 5.39497 39.6846 5.5089 39.8117C5.64146 39.9549 5.64195 39.923 5.49802 39.7262C5.37127 39.5474 5.24718 39.3666 5.1255 39.1847C4.99319 38.9804 4.77234 38.6915 4.65357 38.5676C4.53891 38.4405 4.44094 38.3311 4.33112 38.2002C4.23654 38.0879 4.25081 38.137 4.3841 38.3413L4.38434 38.341ZM20.6979 47.349C20.6508 47.2038 20.5835 47.0452 20.5417 46.8807C20.4831 46.6852 20.8692 46.5598 21.406 46.6077C21.898 46.6447 22.4118 46.6767 22.9035 46.6994C23.4621 46.7176 23.9277 46.895 23.9241 47.0883C23.9209 47.2529 23.941 47.407 23.9384 47.5508C23.9589 47.6979 23.5356 47.8015 23.0441 47.785C22.5992 47.7637 22.1314 47.7337 21.687 47.6994C21.196 47.6539 20.7456 47.4966 20.6982 47.3485L20.6979 47.349ZM16.9457 46.6789C16.8463 46.5332 16.7507 46.3805 16.659 46.2203C16.5545 46.0327 16.8484 45.9579 17.3196 46.0596C17.7461 46.1443 18.173 46.2227 18.6215 46.3009C19.115 46.3788 19.5768 46.5971 19.6534 46.7832C19.7144 46.9407 19.7783 47.0895 19.822 47.2255C19.889 47.369 19.5671 47.4232 19.1249 47.3519C18.7299 47.2826 18.3124 47.2018 17.9183 47.121C17.4791 47.0232 17.0458 46.8262 16.9457 46.6786V46.6789ZM13.6153 45.6414C13.4999 45.5015 13.3671 45.3457 13.2384 45.185C13.0976 45.0001 13.3037 44.9638 13.6813 45.0974C14.0166 45.2082 14.3734 45.3237 14.7522 45.4432C15.1552 45.5608 15.5787 45.8052 15.7048 45.9889C15.796 46.1385 15.8908 46.282 16.0112 46.4279C16.1102 46.5675 15.8753 46.5854 15.5093 46.477C15.1675 46.3693 14.8269 46.2563 14.5096 46.1479C14.1487 46.0172 13.7529 45.7927 13.6155 45.6412L13.6153 45.6414ZM10.7984 44.3363C10.6625 44.1935 10.5299 44.0474 10.4003 43.8981C10.2384 43.7129 10.3461 43.6868 10.6443 43.8434C10.9032 43.9709 11.1835 44.1076 11.4653 44.2393C11.7713 44.375 12.1605 44.6446 12.2832 44.8087C12.4133 44.9624 12.5471 45.1122 12.6634 45.246C12.8013 45.3924 12.662 45.396 12.3548 45.2552C12.0923 45.1318 11.8313 45.0042 11.572 44.8731C11.2931 44.7264 10.9554 44.4922 10.7984 44.3363ZM8.55629 42.8843C8.41914 42.7454 8.28464 42.6041 8.15257 42.4601C8.00671 42.296 8.05291 42.2813 8.25078 42.4231C8.44913 42.5637 8.6499 42.7009 8.85237 42.8347C9.07757 42.9782 9.39155 43.2405 9.53693 43.4066C9.66852 43.552 9.78366 43.68 9.92058 43.8199C10.0587 43.959 9.9975 43.9607 9.77278 43.8153C9.57056 43.68 9.38938 43.5564 9.19078 43.4153C8.99388 43.2718 8.71377 43.0375 8.55629 42.8846V42.8843ZM19.2079 47.7415C19.2858 47.8339 19.3656 47.9193 19.4239 47.9932C19.5064 48.0704 19.9033 48.1831 20.3336 48.2506C20.7171 48.3046 21.1249 48.3559 21.5095 48.3985C21.9425 48.4399 22.284 48.4183 22.242 48.347C22.2003 48.2744 22.1832 48.1969 22.1435 48.1098C22.1055 48.0055 21.69 47.8818 21.1955 47.8344C20.772 47.7879 20.3489 47.7354 19.9028 47.6723C19.4338 47.5989 19.1341 47.6338 19.2081 47.7417L19.2079 47.7415ZM15.9169 46.9492C16.012 47.0392 16.1324 47.1326 16.2323 47.212C16.3564 47.2977 16.7408 47.4484 17.114 47.5568C17.4418 47.6464 17.7942 47.7376 18.1242 47.8177C18.5257 47.9099 18.7722 47.9213 18.6907 47.8472C18.6097 47.772 18.5308 47.6907 18.4539 47.6033C18.3579 47.4966 17.9568 47.3356 17.5378 47.2408C17.1433 47.1437 16.7727 47.0479 16.4256 46.9547C16.0115 46.8337 15.8042 46.8395 15.9171 46.9492H15.9169ZM13.0248 45.8418C13.1624 45.9454 13.281 46.0337 13.4235 46.1288C13.5461 46.2106 13.9157 46.3969 14.2055 46.5245C14.4747 46.6382 14.7677 46.7578 15.0623 46.8732C15.3813 46.9922 15.5512 47.0254 15.4275 46.9417C15.3276 46.865 15.2077 46.7747 15.1121 46.6893C14.9767 46.576 14.5894 46.3797 14.2502 46.2537C13.9355 46.1302 13.6438 46.0129 13.3538 45.8912C13.0217 45.7443 12.891 45.7317 13.0246 45.8423L13.0248 45.8418ZM22.0093 48.6606C22.3293 48.6911 22.6508 48.7158 22.9742 48.7339C23.0417 48.7378 23.1058 48.7409 23.2083 48.746C23.3126 48.7506 23.4171 48.7545 23.5216 48.7579C23.8193 48.7661 24.038 48.7666 24.0383 48.7581C24.0385 48.7429 24.0387 48.7216 24.0148 48.6942C24.0155 48.6577 23.6524 48.6148 23.2407 48.6011C22.8293 48.5807 22.4422 48.556 22.0557 48.526C21.6452 48.4878 21.3278 48.4871 21.3719 48.526C21.4173 48.5558 21.4633 48.5798 21.5102 48.5979C21.5334 48.6066 21.7466 48.6328 22.009 48.6601L22.0093 48.6606ZM18.5596 48.0774C19.2519 48.2465 19.9556 48.3874 20.6696 48.496C20.787 48.5101 20.8561 48.518 20.8095 48.5072C20.7628 48.4893 20.7171 48.4665 20.6721 48.4384C20.6285 48.4026 20.2487 48.3167 19.8653 48.254C19.5069 48.1899 19.1728 48.1258 18.8158 48.0517C18.4362 47.967 18.2176 47.9392 18.3066 47.9832C18.3741 48.0142 18.4665 48.0464 18.5366 48.0677C18.5366 48.0677 18.5603 48.0737 18.5594 48.0774H18.5596ZM13.9484 46.4422C14.1245 46.5254 14.3015 46.6067 14.48 46.6861C14.3485 46.622 14.1711 46.5412 13.9943 46.4591C13.9796 46.4522 13.9644 46.4465 13.9486 46.4422H13.9484ZM10.5655 44.4946C10.5795 44.504 10.5933 44.5139 10.6073 44.5236L10.6376 44.5297C10.5026 44.4249 10.5536 44.4365 10.8018 44.5909C11.0314 44.7288 11.2628 44.8634 11.4963 44.9943C11.7529 45.133 12.1027 45.3522 12.237 45.4594C12.3538 45.549 12.4941 45.647 12.6153 45.7297C12.7595 45.8215 12.6482 45.7714 12.3913 45.631C12.2779 45.5671 12.1646 45.5033 12.0514 45.4396C11.7075 45.238 11.369 45.0279 11.036 44.8102C10.9018 44.7185 10.7688 44.6249 10.6371 44.5294L10.565 44.4943L10.5655 44.4946ZM9.21981 43.4997C9.45469 43.6861 9.6932 43.868 9.93509 44.0459C9.93509 44.0459 9.92856 44.0411 9.9155 44.0314C9.77955 43.9283 9.48855 43.7069 9.2948 43.5585C9.25779 43.5297 9.24448 43.5193 9.21981 43.4997ZM0.47629 29.2939C0.497577 29.3977 0.521041 29.5004 0.543537 29.6034C0.57837 29.7457 0.600624 29.8406 0.612961 29.8878C0.627716 29.9345 0.644891 29.9805 0.663758 30.0262C0.686013 30.071 0.665694 29.9258 0.615138 29.6874C0.571355 29.4728 0.529749 29.2579 0.48524 29.0185C0.443393 28.779 0.38945 28.5413 0.366712 28.4958C0.351473 28.4738 0.33454 28.4271 0.323655 28.4043C0.310593 28.3571 0.336233 28.5258 0.374211 28.7419C0.410172 28.9338 0.444038 29.1177 0.475806 29.2937L0.47629 29.2939ZM0 25.2685C0.0179002 25.762 0.0491046 26.252 0.0955483 26.7377C0.0969997 26.7377 0.0836955 26.5673 0.0655534 26.3488C0.0491046 26.13 0.0348328 25.911 0.0222543 25.6918C0.0133042 25.5016 0.00459599 25.3411 0 25.2685ZM0.48645 19.4301C0.416059 19.7706 0.354134 20.1142 0.298256 20.4598C0.316398 20.3639 0.340829 20.2207 0.365986 20.0777C0.401061 19.8857 0.442425 19.6701 0.485724 19.455C0.485724 19.455 0.488627 19.4313 0.48645 19.4303V19.4301ZM6.73676 7.53584C6.52486 7.75775 6.3178 7.9845 6.11437 8.21416C6.24717 8.07017 6.45616 7.84124 6.60082 7.68128C6.67701 7.59924 6.69491 7.58012 6.73676 7.53584ZM19.2964 0.526105C18.5361 0.686792 17.7884 0.882085 17.0562 1.11198C16.9806 1.14199 16.905 1.17224 16.8293 1.20273C16.741 1.24653 16.9331 1.20709 17.2836 1.10545C17.6121 1.01543 17.9416 0.93 18.2957 0.843123C18.6747 0.75673 19.0492 0.65025 19.115 0.610078C19.1827 0.577409 19.2514 0.549579 19.3213 0.527073C19.3448 0.520539 19.3445 0.519571 19.2962 0.525863L19.2964 0.526105ZM21.8484 0.125839C21.3186 0.180289 20.794 0.252647 20.2746 0.340492C20.1326 0.367596 20.0148 0.38986 19.9916 0.39712C19.9215 0.42011 19.8525 0.448665 19.7848 0.483029C19.7188 0.526105 20.0117 0.507229 20.4193 0.443825C20.8037 0.38986 21.1885 0.34146 21.5741 0.298868C21.9841 0.259906 22.3677 0.192873 22.4132 0.152459C22.4355 0.123661 22.458 0.100913 22.4809 0.0837315C22.5288 0.0699376 22.2369 0.0902655 21.8486 0.126081L21.8484 0.125839ZM28.4794 0.3463C27.9591 0.257486 27.4335 0.184645 26.9025 0.129469C26.5179 0.0936534 26.2301 0.0730836 26.2535 0.0849415C26.2768 0.102123 26.3234 0.127049 26.3455 0.155847C26.3667 0.194325 26.7501 0.261358 27.1843 0.303466C27.5699 0.346784 27.9548 0.395668 28.315 0.446487C28.7463 0.514489 29.0152 0.529251 28.9494 0.485933C28.8817 0.451569 28.8128 0.423013 28.7666 0.40438C28.7192 0.392764 28.6234 0.37413 28.4797 0.346542L28.4794 0.3463ZM31.6773 1.11634C30.9451 0.885957 30.1976 0.69018 29.4373 0.529009C29.4127 0.527557 29.3887 0.523443 29.4122 0.529977C29.4821 0.552725 29.551 0.580313 29.6185 0.613224C29.708 0.65872 30.0822 0.765683 30.4613 0.852803C30.792 0.933631 31.1214 1.0193 31.4497 1.10956C31.8234 1.2187 32.0152 1.25863 31.9039 1.20709C31.8285 1.1766 31.7528 1.14635 31.6771 1.11634H31.6773ZM42.0577 7.61521C42.0335 7.58956 42.0096 7.56391 41.9854 7.5385C42.0171 7.57165 42.0359 7.59198 42.0577 7.61521ZM42.6337 8.2461C42.4564 8.04524 42.2761 7.84729 42.0925 7.65224L42.1455 7.70935C42.2747 7.85285 42.5011 8.10163 42.6337 8.24586V8.2461ZM38.7965 44.0374C39.0369 43.8605 39.274 43.6793 39.5074 43.4939L39.4363 43.5498C39.2428 43.6982 38.9714 43.9053 38.8161 44.0229C38.8161 44.0229 38.8096 44.0278 38.7965 44.0374ZM36.6785 45.4335C37.0309 45.2266 37.3778 45.011 37.7188 44.7872C37.8969 44.6649 37.8979 44.664 38.0943 44.5217L38.1661 44.4866C38.1521 44.496 38.1383 44.506 38.1243 44.5154L38.0943 44.5214C38.2491 44.4026 38.178 44.4283 37.93 44.5827C37.7005 44.7206 37.4895 44.8423 37.2358 44.9863C36.9791 45.1255 36.6504 45.3326 36.4951 45.4522C36.3783 45.5417 36.2593 45.6281 36.1383 45.7109C35.9941 45.8028 36.0841 45.7644 36.3408 45.6237C36.5099 45.5282 36.5106 45.5279 36.6785 45.4333V45.4335ZM34.2527 46.6803C34.4313 46.6009 34.6086 46.5194 34.7847 46.4359C34.7687 46.4403 34.7534 46.446 34.7387 46.4531C34.5839 46.5249 34.4066 46.6063 34.2527 46.6803ZM28.0907 48.4897C28.7958 48.3813 29.4906 48.2412 30.1744 48.0737C30.1971 48.0643 30.1971 48.0641 30.1971 48.0641C30.2908 48.037 30.3594 48.0106 30.4506 47.9736C30.5397 47.9293 30.2975 47.9636 29.918 48.0483C29.5849 48.1173 29.2271 48.187 28.8926 48.2468C28.4855 48.314 28.1297 48.3963 28.0622 48.436C28.0172 48.4641 27.9715 48.4868 27.9248 48.5047C27.9013 48.5125 27.949 48.5076 28.0907 48.4897ZM25.2085 48.7574C25.3106 48.7538 25.4127 48.7504 25.5145 48.7458C25.6161 48.7407 25.6807 48.7373 25.7456 48.7337C26.0786 48.715 26.41 48.6894 26.7395 48.6577H26.7402C27.0068 48.6291 27.2003 48.6052 27.248 48.5933C27.2949 48.5752 27.3169 48.5541 27.3621 48.5241C27.4062 48.4851 27.1127 48.4832 26.6783 48.5243C26.2918 48.5548 25.9047 48.5798 25.5174 48.5989C25.0816 48.6141 24.7187 48.657 24.7192 48.6937C24.7197 48.7208 24.7199 48.7419 24.6957 48.7576C24.6957 48.7661 24.9127 48.7654 25.2083 48.7571L25.2085 48.7574ZM25.7187 0.0493677C25.718 0.0655816 25.7407 0.0900235 25.7635 0.120757C25.7855 0.162381 25.4444 0.185855 24.9846 0.171577C24.5731 0.165285 24.1372 0.165285 23.7257 0.171577C23.2659 0.186097 22.9248 0.162623 22.9468 0.120999C22.9693 0.0902655 22.9923 0.0660656 23.0158 0.0483997C23.039 0.0367838 23.3663 0.0181499 23.7688 0.00508197C23.8835 0.00241999 23.9986 0.00193599 24.1137 0.000725996C24.2753 -0.000241999 24.4386 -0.000241999 24.6002 0.000725996C24.7158 0.00193599 24.8317 0.00241999 24.9468 0.00508197C25.3479 0.0181499 25.6955 0.0375098 25.7187 0.0493677ZM27.7746 0.793029C27.7153 0.702038 27.6781 0.621694 27.6398 0.548611C27.5772 0.473107 27.1754 0.379938 26.7424 0.339282C26.3571 0.309032 25.9475 0.282412 25.5375 0.261842C25.1033 0.246839 24.7405 0.291366 24.7393 0.36203C24.762 0.434145 24.7608 0.513279 24.7594 0.599914C24.7814 0.704942 25.1802 0.806097 25.6754 0.823279C26.1232 0.845785 26.5472 0.872647 26.9945 0.907737C27.4884 0.954442 27.8309 0.900961 27.7746 0.793029Z" fill="white"/>
</mask>
<g mask="url(#mask0_4684_10135)">
<path d="M42.8625 0H-1.04785V48.7668H42.8625V0Z" fill="url(#paint1_linear_4684_10135)"/>
</g>
<defs>
<linearGradient id="paint0_linear_4684_10135" x1="34.0752" y1="10.6436" x2="34.0752" y2="32.6436" gradientUnits="userSpaceOnUse">
<stop stop-color="#1E46FF"/>
<stop offset="1" stop-color="#CEC4C4"/>
</linearGradient>
<linearGradient id="paint1_linear_4684_10135" x1="20.9469" y1="5.55701" x2="20.8508" y2="51.2616" gradientUnits="userSpaceOnUse">
<stop stop-color="#2249FD"/>
<stop offset="1" stop-color="#C9C0C5"/>
</linearGradient>
</defs>
</svg>
