<svg width="17" height="16" viewBox="0 0 17 16" fill="none" xmlns="http://www.w3.org/2000/svg">
<path d="M9.44444 7.68V15.04C9.44444 15.2946 9.34494 15.5388 9.16782 15.7188C8.9907 15.8989 8.75048 16 8.5 16C8.24952 16 8.00929 15.8989 7.83218 15.7188C7.65506 15.5388 7.55556 15.2946 7.55556 15.04V7.68C7.55556 7.42539 7.65506 7.18121 7.83218 7.00118C8.00929 6.82114 8.24952 6.72 8.5 6.72C8.75048 6.72 8.9907 6.82114 9.16782 7.00118C9.34494 7.18121 9.44444 7.42539 9.44444 7.68ZM14.1667 13.12C13.9162 13.12 13.676 13.2211 13.4988 13.4012C13.3217 13.5812 13.2222 13.8254 13.2222 14.08V15.04C13.2222 15.2946 13.3217 15.5388 13.4988 15.7188C13.676 15.8989 13.9162 16 14.1667 16C14.4171 16 14.6574 15.8989 14.8345 15.7188C15.0116 15.5388 15.1111 15.2946 15.1111 15.04V14.08C15.1111 13.8254 15.0116 13.5812 14.8345 13.4012C14.6574 13.2211 14.4171 13.12 14.1667 13.12ZM16.0556 9.92H15.1111V0.96C15.1111 0.705392 15.0116 0.461212 14.8345 0.281178C14.6574 0.101143 14.4171 0 14.1667 0C13.9162 0 13.676 0.101143 13.4988 0.281178C13.3217 0.461212 13.2222 0.705392 13.2222 0.96V9.92H12.2778C12.0273 9.92 11.7871 10.0211 11.61 10.2012C11.4328 10.3812 11.3333 10.6254 11.3333 10.88C11.3333 11.1346 11.4328 11.3788 11.61 11.5588C11.7871 11.7389 12.0273 11.84 12.2778 11.84H16.0556C16.306 11.84 16.5463 11.7389 16.7234 11.5588C16.9005 11.3788 17 11.1346 17 10.88C17 10.6254 16.9005 10.3812 16.7234 10.2012C16.5463 10.0211 16.306 9.92 16.0556 9.92ZM2.83333 10.56C2.58285 10.56 2.34263 10.6611 2.16551 10.8412C1.98839 11.0212 1.88889 11.2654 1.88889 11.52V15.04C1.88889 15.2946 1.98839 15.5388 2.16551 15.7188C2.34263 15.8989 2.58285 16 2.83333 16C3.08382 16 3.32404 15.8989 3.50116 15.7188C3.67827 15.5388 3.77778 15.2946 3.77778 15.04V11.52C3.77778 11.2654 3.67827 11.0212 3.50116 10.8412C3.32404 10.6611 3.08382 10.56 2.83333 10.56ZM4.72222 7.36H3.77778V0.96C3.77778 0.705392 3.67827 0.461212 3.50116 0.281178C3.32404 0.101143 3.08382 0 2.83333 0C2.58285 0 2.34263 0.101143 2.16551 0.281178C1.98839 0.461212 1.88889 0.705392 1.88889 0.96V7.36H0.944444C0.693962 7.36 0.453739 7.46114 0.276621 7.64118C0.0995037 7.82121 0 8.06539 0 8.32C0 8.57461 0.0995037 8.81879 0.276621 8.99882C0.453739 9.17886 0.693962 9.28 0.944444 9.28H4.72222C4.9727 9.28 5.21293 9.17886 5.39005 8.99882C5.56716 8.81879 5.66667 8.57461 5.66667 8.32C5.66667 8.06539 5.56716 7.82121 5.39005 7.64118C5.21293 7.46114 4.9727 7.36 4.72222 7.36ZM10.3889 3.52H9.44444V0.96C9.44444 0.705392 9.34494 0.461212 9.16782 0.281178C8.9907 0.101143 8.75048 0 8.5 0C8.24952 0 8.00929 0.101143 7.83218 0.281178C7.65506 0.461212 7.55556 0.705392 7.55556 0.96V3.52H6.61111C6.36063 3.52 6.12041 3.62114 5.94329 3.80118C5.76617 3.98121 5.66667 4.22539 5.66667 4.48C5.66667 4.73461 5.76617 4.97879 5.94329 5.15882C6.12041 5.33886 6.36063 5.44 6.61111 5.44H10.3889C10.6394 5.44 10.8796 5.33886 11.0567 5.15882C11.2338 4.97879 11.3333 4.73461 11.3333 4.48C11.3333 4.22539 11.2338 3.98121 11.0567 3.80118C10.8796 3.62114 10.6394 3.52 10.3889 3.52Z" fill="#4E67DD"/>
</svg>
